<?xml version="1.0" encoding="UTF-8"?>
<svg id="Capa_1" xmlns="http://www.w3.org/2000/svg" version="1.1" viewBox="0 0 1080 1080">
  <!-- Generator: Adobe Illustrator 29.7.1, SVG Export Plug-In . SVG Version: 2.1.1 Build 8)  -->
  <defs>
    <style>
      .st0 {
        fill: #eb3e8f;
      }
    </style>
  </defs>
  <path class="st0" d="M551.46,910.79v.96h-22.07v-.96c6.55-2.75,15.51-2.74,22.07,0Z"/>
  <path class="st0" d="M551.46,910.79c-7.21.22-14.85.21-22.07,0-78.58-2.27-157.3-30.43-218.65-79.22-6.89-5.48-25.56-18.85-23.16-28.5,1.27-5.09,24.69-.08,29.3.31,34.66,2.9,71.02,5.68,105.23-1.25,53.71-10.88,103.23-39.87,143.75-75.93,2.91-2.59,13.49-14.66,15.85-14.91,3-.32,10.59,6.51,13.37,8.68,34.72,27.17,81.41,76.19,95.5,118.41,12.85,38.49-19.35,50.35-49.7,58.73-28.84,7.96-59.48,12.78-89.43,13.7Z"/>
  <path class="st0" d="M809.94,284.11c41.75,43.67,80.47,109.47,92.01,169.37,1.37,7.12,4.4,27.08-8.9,18.49-8.89-5.75-20.51-18.88-29.33-26.31-28.73-24.21-53.97-43.85-89.9-56.87-53.49-19.38-110.06-21.77-166.1-13.28-1.72-.59-5.3-14.98-6.1-17.9-11.87-43.35-20.69-109.23-6.06-152.25,11.09-32.63,41.06-25.57,66.73-16.77,56.52,19.38,106.58,52.55,147.66,95.52Z"/>
  <path class="st0" d="M520.75,168.47c13.75-.6,27.66.2,41.26.96,4.13.23,8.68-.47,12.85.1,9.69,1.33,21.04,6.52,8.58,15.08-24.97,17.16-52.19,29.06-76.98,48.69-50.65,40.11-81.54,103.03-95.74,165.16-1.25,5.47-2.94,21.69-4.62,25.11-1.39,2.84-9.42,2.08-12.51,1.96-44.62-1.65-100.23-11.55-139.58-33.11-33.15-18.17-38.2-36.98-16.11-68.9,62.27-89.97,173.26-150.27,282.85-155.07Z"/>
  <g>
    <path class="st0" d="M303.92,605.8c2.91,1.87,5.85,3.63,8.82,5.32-2.98-1.73-5.89-3.56-8.82-5.32Z"/>
    <path class="st0" d="M322.73,616.36l.15-.24c-2.17-.84-4.26-1.82-6.3-2.89,2.04,1.09,4.09,2.13,6.15,3.13Z"/>
    <path class="st0" d="M313.88,611.76c.14.08.29.16.43.24-.14-.08-.29-.16-.43-.24Z"/>
  </g>
  <path class="st0" d="M332.71,644.16c3.56-1.69,9.28-1.06,13.43-.96"/>
  <g>
    <path class="st0" d="M384.52,631.7c-3.51-1.98-6.83-4.12-10.55-5.75-.27-.12-.68.11-.96,0l-2.88-1.92c-72.43-36.1-140.09-105.37-164.08-183.64-1.07-3.49-4.82-21.87-5.77-22.54-.71-.5-2.64.35-3.54.73-1.5.64-18.72,11.68-19.71,12.64-.79.76-1.34,1.43-1.43,2.57,39.68,82.95,105.13,156.83,191.65,192.16.28-.06.67-.01.96,0l1.92.96c.31.09.7-.1.96,0l.96.96c.27.12.71-.12.96,0,1.08,1.2,2.04,2.16,2.88,2.88-2.64-2.2-7.02-3.98-10.55-3.84-64.51-24.6-135.88-84.97-169.98-145.13-1.51-2.66-8.55-18.46-10-18.8-2.17-.51-18.58,15.23-21.39,17.82,35.69,51.6,86.38,92.95,139.97,125.02,18.56,9.38,37.09,19.28,57.57,23.98.66.77.02,1.09-1.92.96-13.94-3.35-24.57-7.77-37.42-13.43-.81-.36-1.87-.5-2.88-.96l-7.68-3.84c-.28-.11-.68.11-.96,0l-4.8-2.88c-.26-.12-.69.12-.96,0l-2.88-1.92c-35.01-16.35-76.73-48.5-102.68-77.18-2.71-2.99-17.37-22.23-18.82-22.49-1.12-.2-1.61.71-2.31,1.31-2.16,4.67-16.57,16.79-17.1,20.41-.14.93-.05,1.3.33,2.14.82,1.82,13.71,12.23,16.37,14.39,45.98,37.39,96.54,63.71,153,81.55l2.88.96c.29.08.66-.08.96,0l2.88.96h.96l23.02,4.79c-9.06.37-18.2-1.25-26.86-3.83-.31.02-.65.02-.96,0l-2.88-.96c-.29-.07-.64.06-.96,0l-3.84-.96c-42.96-8.11-101.24-35.25-134.77-63.32-2.56-2.14-9.17-10.19-11.7-10.42l-2.1,1.47c-1.22,4.5-15.3,20.79-14.44,23.7.21.7.85,1.14,1.47,1.48,55.69,24.22,113.27,47.04,174.02,54.78,9.72,1.08,19.52.56,29.27.96,1.17.05,3.57-.72,3.34.95-11.33,1.03-22.66,1.13-34.07.99-1.62-.02-4.27.61-5.26-.98-36.42-.99-85.28-12.02-119.46-24.92-4.51-1.7-24.04-11.43-25.98-11.54-.58-.03-1.11-.07-1.67.11-1.73.56-12.12,22.54-13.07,26.18.67,2.14,20.9,4.65,24.58,5.22,44.76,6.88,91.32,10.83,136.56,10.71l13.43-.96c.96.02,1.92,0,2.88,0l21.1-2.87c.23,1.46-1.79,1.13-2.88,1.41-3.43.87-9.14,2.49-12.47,2.41h-.96l-3.84.96c-37.22,8.13-85.05,4.06-123.25,2.84-9.94-.32-19.85-.52-29.78-.92-1.63.06-1.93,1.02-2.62,2.18-1.35,2.27-8.02,22.5-8.35,25.23-.09.78-.1,1.55-.06,2.32,42.75-4.04,85.7-8.97,127.8-17.54,11.85-2.41,23.46-6.01,35.3-8.35l1.92-.96c.31-.04.64.03.96,0l16.29-5.28c-4.5,3.48-10.14,5.11-15.33,7.2-.28.11-.68-.11-.96,0l-1.92.96c-43.75,16.99-89.7,27.69-135.56,37.6-1.9.86-2.74,2.45-3.32,4.36-2.17,7.21-1.93,16.65-4.87,23.95-.3.86.7,1.97,1.37,2.14,1.41.36,23.95-8.44,27.49-9.79,43.25-16.49,83.22-35.77,124.49-56.35l5.76-3.84c.27-.11.66.1.96,0,1.85-2.27,5.05-3.79,7.58-5.37.82-.51,2.09-2.4,2.97-.87-3.32,3.49-7.21,6.32-11.04,9.21-.77.68-1.6,1.32-2.39,1.83-38.97,30.38-82.65,54.46-127.17,75.72-3.39,3.69-1.28,23.41-3.35,29.28-.31,1.99.79,1.67,2.25,1.28,6.09-1.64,29.31-17.89,36.08-22.45,39.42-26.55,69.96-53.72,103.7-86.71,1.37-4.15,5.52-6.85,8.63-9.59-1.39,3.66-3.73,8-6.71,10.55-17.39,31.22-57.61,69.47-84.93,93-4.3,3.7-28.04,21.27-28.85,23.98l1.54,28.79c.75.03,1.5.09,2.23-.15,2.77-.94,18.84-15.83,22.25-19,35.16-32.62,70.88-77.41,90.81-121.18,2.09-4.58,8.61-18.5,9.25-22.47.8-4.92-2.17-3.64-4.63-5.03Z"/>
    <path class="st0" d="M369.05,650.19c-.08.19-.22.43-.42.7l.53-.49c-.04-.08-.08-.14-.12-.21Z"/>
    <path class="st0" d="M367.09,650.4c.5-.29.9-.48,1.2-.6-.39.05-.81.33-1.2.6Z"/>
    <path class="st0" d="M354.77,650.87v-.22c-.17.19-.42.4-.78.62l.78-.39Z"/>
  </g>
  <path class="st0" d="M742.38,544.42l-3.84.96c.88-.16,2.16-.69,3.84-.96Z"/>
  <path class="st0" d="M329.83,629.78l-3.84-.96c1.51.29,2.96.79,3.84.96Z"/>
  <path class="st0" d="M353.81,644.16l-3.84.96"/>
  <path class="st0" d="M333.67,630.74c-1.05-.06-2.41.3-2.88-.96.89.23,2.39-.44,2.88.96Z"/>
  <path class="st0" d="M333.67,628.82c-1.06-.3-1.9-.65-2.88-.96l2.88.96Z"/>
  <path class="st0" d="M337.5,629.78c-1.39.7-2.73-.92-2.88-.96l2.88.96Z"/>
  <path class="st0" d="M310.64,612.52c-1.67-.63-3.6-1.52-4.8-2.88,1.6.74,3.99.47,4.8,2.88Z"/>
  <path class="st0" d="M319.28,616.35c-2.47-1.12-5.73-1.5-7.68-3.84,2.66,1.05,5.64,1.56,7.68,3.84Z"/>
  <path class="st0" d="M304.88,609.64l-2.88-1.92c1.68.78,2.71,1.84,2.88,1.92Z"/>
  <path class="st0" d="M373,625.94c-1.11-.46-2.17-.87-2.88-1.92"/>
  <path class="st0" d="M350.94,649.92c-.11.02-.43.66-1.92.96l1.92-.96Z"/>
  <path class="st0" d="M351.9,651.84l-1.92.96c.45-.17,1.1-.63,1.92-.96Z"/>
  <path class="st0" d="M832.06,434.16c-50.65-44.54-139.45-56.43-204.21-48.82-4.65.55-28.49,5.37-30.36,4.22-4.01-2.46-16.48-59.12-17.93-67.45-3.46-19.82-4.02-39.3-6.05-59.17-1.89-18.53-10.79-42.92-33.82-38.63-6.46,1.2-19.69,11.62-25.14,16.11-57.7,47.44-89.28,121.7-97.61,194.94-.67,2.09-2.1,2.38-4.07,2.64-23.35,3.11-67.01-3.41-90.89-8.02-20.87-4.03-48.64-15.72-68.9-6.89-20.72,9.03-10.39,33.94-4.3,49.38,22.72,57.7,72.38,105.97,125.51,136.37,10.28,5.88,21.22,10.45,31.24,16.76-8.23,28.25-20.19,56.63-34.27,82.5-8.76,16.09-27.87,40.08-29.81,57.48-3.68,33.01,25.23,31.26,49.3,29.14,70.54-6.22,134.09-45.16,182.8-94.44,2.04-2.06,4.47-7.36,7.98-7.02,1.65.16,21.12,15.61,24.11,18.05,26.93,21.94,45.16,43.9,68.13,69.04,12.55,13.74,39.46,33.3,53.08,9.87,16.32-28.07,18.33-86.06,14.57-117.77-5.25-44.19-21.11-85.69-42.05-124.55.48-2.51,20.67-15.55,24.29-17.9,30.72-19.99,57.87-29.89,90.07-45.19,21.04-10,42.09-29.77,18.34-50.67ZM515.16,641.93c-14.3,32.36-42.98,61.2-75.95,74.16,18.29-38.02,32.78-78.27,35.49-120.85l48.96,14.84c.66.51.86,1.19.98,1.98.58,3.94-7.32,25-9.47,29.87ZM667.94,668.23c-25.7-40.09-109.33-56.5-152.72-69.84-56.95-17.52-122.41-41.58-164.8-84.62-1.21-1.23-8.8-9.49-9.08-10.11-.23-.51-.18-1.62.47-1.42,22.84,16.36,49.85,23.66,77.04,29.44,16.14,3.44,37.64,8.16,53.75,9.64,1.07.1,2.09.58,3.12-.17.67-.48,1.79-13.99,1.9-16.34,1.5-33.34-1.32-67.21,4.25-100.29,4.31-25.56,18.19-66.63,32.9-87.92.58-.84-.16-1.78,2.14-1.25,6.13,36.49,15.84,73.47,33.42,106.14,24.38,45.3,58.75,85.44,85.95,128.91,22.78,36.41,38.26,73.56,41.81,116.92l-10.15-19.09Z"/>
  <path class="st0" d="M739.5,542.5c12.49-3.38,24.61-7.54,37.38-10.11,39.59-7.94,81.84-9.9,122.16-8.33l4-2.71c1.03-3.84,14.55-20.27,13.95-22.47-.29-1.06-2.18-1.71-3.31-1.51-55.96,4.16-112.91,11.89-164.28,35.36-4.52,2.06-30.27,14.87-30.86,18.05,44.31,88.42,62.08,198.6,17.11,290.43.63.98,1.28,1.27,2.4,1.46,6.15,1.05,16.7,1.72,23.08,1.96,1.18.04,2.26.13,3.32-.51,2.02-1.21,5.02-22.1,5.6-26.05,9.68-65.72,6.85-137.03-16.17-199.83-5.37-14.65-12.86-30.32-20.15-44.12-.14-.27-1.47-.98-2.11-2.16-1.96-3.63-3.83-7.51-5.56-11.26,4.05,3.25,6.05,8.2,8.63,12.47,8.63,14.28,14.32,27.57,20.15,43.16,23.37,62.44,33.56,132.56,20.14,198.53l25.4-.99c2.63-.49,3.11-1.82,3.43-4.24,2.53-19.06-2.02-53.13-4.98-72.8-5.78-38.42-17.55-84.14-33.44-119.54-4.83-10.76-12.74-25.63-19.19-35.49-1.19-1.81-13.41-16.24-12.46-17.26,5.37,4.45,9.48,10.56,13.42,16.3,7.65,11.16,14.26,23.32,20.15,35.49,24.54,50.66,39.04,108.41,38.81,165.01.75,1.12,1.55.81,2.64.72,4.71-.39,19.47-3.41,24-4.87,3.19-1.03,3.73-1.28,3.42-4.72-1-10.84-6.73-29.99-9.85-41.07-12.19-43.18-31.06-84.5-54.22-122.75-7.55-9.99-14.07-21.05-22.07-30.69-3.22-3.88-8.63-7.95-11.51-12.46,4.94,2.04,8.87,7.62,12.47,11.5,8.51,9.16,16.53,18.97,23.03,29.73,31.11,39.68,52.84,88.15,61.52,137.99,1.6.49,3.16.01,4.72-.33,2.43-.53,22.21-7.26,23.38-8.09,1.14-.8.62-2.17.36-3.22-1.62-6.42-12.12-23.29-15.94-30.14-22.88-41.02-48.47-78.65-78.84-114.44-6.4-5.42-11.89-11.76-18.23-17.26-3.71-3.22-8.22-5.83-11.51-9.58,4.8,1.07,8.75,5.66,12.47,8.62,6.35,5.04,13.14,9.92,18.23,16.3,17.25,15.23,34.19,34.67,48.35,52.85,15.7,20.15,29.64,41.69,40.86,64.67,1.64,1.06,2.99.22,4.54-.3,3.56-1.2,18.15-8.31,21.3-10.36.94-.61,2.07-1.31,1.87-2.62-.33-2.12-24.97-28.02-28.63-31.85-27.05-28.31-60.46-61.08-92.13-83.89-6.49-4.67-14.19-7.94-20.15-13.42,8.24,2.44,14.99,7.93,22.07,12.46,39.25,25.12,73.51,57.28,109.42,86.76.73.4,1.52.6,2.35.6,1.91,0,24.11-14.58,24.43-16.01.18-.84-.29-1.37-.87-1.86-47.72-31.45-96.54-62.35-149.72-83.88l-15.35-5.74c6.44.2,12.22,3.01,18.22,4.79,46.19,13.66,89.95,34.7,132.45,57.01,1.98.92,4.45.99,6.25-.38,2.37-3.14,20.21-16.23,19.61-18.74-18.31-7.28-37.77-13.31-56.83-18.97-41.2-12.24-77.56-19.93-119.95-26.84-.86-.14-2.88-.41-2.63-1.67,55.04-1.15,109.54,7.79,162.63,21.17,5.17-.31,14.69-16.45,19.7-19.7.94-1.03,1.38-2.2.47-3.44-1.22-1.69-36.49-5.28-41.3-5.71-44.03-3.96-91.08-4.19-134.79,2.87l-3.84.96c-.59.11-1.33-.12-1.92,0-.61.12-8.57,3.65-8.64,1.44,2.75-1.32,5.7-2.52,8.64-3.36"/>
  <path class="st0" d="M361.49,629.78l14.39,3.83c-5.63.19-10.94-1.58-16.31-2.87l1.92-.96Z"/>
  <path class="st0" d="M372.04,627.86l-.96-.96c.67.26.9.93.96.96Z"/>
  <path class="st0" d="M621.49,605.8c3.48,3.69,1.33,3.8-1.92.96-22.81-16.86-45.87-30.11-71.61-42.06-3.88-1.8-15.23-5.23-17.11-7.83l-5.29-74.79,21.45,34.65c21.59,32.38,48.24,60.57,74.48,89.07Z"/>
  <path class="st0" d="M621.49,605.8c1.23,1.33,4.19,2.16,3.83,4.79-1.2,1.16-4.91-3.21-5.75-3.83,2.27,1.56,3.85,1.58,1.92-.96Z"/>
</svg>