<?xml version="1.0" encoding="UTF-8"?>
<svg id="Capa_1" xmlns="http://www.w3.org/2000/svg" version="1.1" viewBox="0 0 1080 1080">
  <!-- Generator: Adobe Illustrator 29.7.1, SVG Export Plug-In . SVG Version: 2.1.1 Build 8)  -->
  <defs>
    <style>
      .st0 {
        fill: #929090;
      }
    </style>
  </defs>
  <g>
    <path d="M1029.03,422.48c.16,1.2.34,2.5.56,3.9-.09,3.14.13,6.33,0,9.46-1.25,30.35-9.48,61.51-11.16,91.55-.59,10.45-.03,19.46,3.65,29.24,1.48,3.92,3.92,5.5-2.34,2.89-21.35-8.91-23.99-22.15-24.15-43.77-.28-39.74,6.72-79.3,4.47-119.14-.43-7.6-2-15.22-3.89-22.55.91-.98,13.24,9.09,14.48,10.29,9.75,9.45,17.73,24.42,18.37,38.14Z"/>
    <path d="M840.81,750.9c-13.85-1.13-32.26-7.33-33.43-23.64-1.07-14.91,13.13-12.8,23.4-10.32.14,1.73-2.01,1.85-3.06,2.78-8.16,7.21-9.98,24.31,3.88,25.07,16.97.94,26.93-17.44,22.42-32.43-4.48-14.87-20.61-21.72-33.25-11.57l16.14-56.22c-9.46,1.8-21.33,11.37-23.14,21.12-.56,3.01-.04,5.47.03,8.37-3.63-4.55-6.28-10.54-7.8-16.14s-4.81-20.96,2.9-22.7c21.27-.2,42.81,2.24,60.57-11.81l-32.57,61.24c9.81-2.63,23.96-3.78,31.17,4.74,16.44,19.45,7.54,58.38-20.03,61.5-1.9.22-5.29.16-7.24,0Z"/>
    <path class="st0" d="M1029.58,426.37c-1-.77-.5-2.67-.56-3.9h.56v3.9Z"/>
    <path d="M881.45,450.87c-7.92-9.32-22.85-18.76-34.09-8.91-13.53,11.86-13.93,40.58-10.76,56.8,4.75,24.3,17.66,12.99,24.11-2.66,5.97-14.49,7.72-31.67,4.03-46.9,7.44,3.53,14.03,12.53,17.75,19.83,10.82,21.21,15.43,77.72,6.85,99.67-6.54,16.74-25.86,31.41-43.42,34.53-19.54,3.47-49.52-5.39-40.36-30.88,4.77-13.27,20.32-16.64,33-14.6l-5.47,6.5c-7.66,14.59-.86,32.52,17.86,28.43,10.99-2.4,15.14-14.4,16.95-24.25,3.13-17.01-1.17-32.39-3.73-49.09-.8.07-.87.82-1.13,1.37-4.22,9.05-6.87,18.55-19.17,19.24-23.92,1.34-36.08-34.28-38.16-53.19-2.63-23.9,1.31-46.23,24.48-57.9,18.55-9.34,43.07,4.36,51.24,22Z"/>
    <path d="M806.28,545.5c-10.46.84-23.04-5.75-28.86-14.29-11.55-16.95-1.08-50.13-7.37-70.57-2.38-7.75-6.49-12.66-12.1-3.81-10.81,17.06-11.7,53.58-8.88,73.21,1.74,12.1,7.13,22.51,10.98,33.83-13.38-4.13-25.41-11.02-32.58-23.37-11.31-19.45-11.4-36.64-14.92-58.01-2.62-15.91-6.05-31.91-12.63-46.65,9.83.12,23.4,4.39,29.8,12.24s5.25,18.9,8.35,28.4c3.08-11.69,3.56-24.97,11.43-34.78s18.97-15.74,31.35-7.98c19.8,12.41,13.55,59.03,16.05,79.15,1.4,11.32,5.25,22.13,9.38,32.64Z"/>
    <path d="M906.52,665.18l-5.9,10.53c-4.73,7.61-15.28,14.05-23.8,8.3-12.21-8.23-2.17-32.39-1.49-44.17.37-6.4-1.11-11.1-1.84-17.1-.06-.47-.59-1.39.46-1.54,1.73-.26,10.44,4.87,11.98,6.38,10.96,10.68-1.76,28.99-.52,41.71,1,10.28,7.68,3.32,10.75-1.38,7.36-11.26,11.96-45.05,8.4-57.84-.73-2.63-2.64-5.17-2.23-7.79,9.42,5.14,16.16,8.51,18.83,19.58,5.29,21.91-1.89,44.48,3.72,66.14-5.18.45-18.37-6.43-18.37-11.96v-10.85Z"/>
    <path d="M957.19,682.43c-15.6-4.09-20.05-9.14-22.2-24.84-4.14-30.14,1.04-61.9-9.53-90.94,11.76,4.24,22.28,14,25.9,26.15,3.26,10.93,1.73,27.55,1.41,39.27-.36,12.98-3.32,28.79.38,41.33,1,3.38,3.1,5.79,4.05,9.03Z"/>
    <path d="M839.69,410.79c-5.35-.55-11.22-4.03-13.67-8.87-2.62-5.17-3.21-19.07-3.58-25.36-1.14-19.05.5-38.7-5.57-57.05,9.01,3.22,16.49,11.86,18.66,21.14,4.51,19.3-4.23,48.43,1.93,65.42.65,1.79,1.72,3.01,2.23,4.72Z"/>
    <path d="M729.46,616.45c-2.29-57.15-31.38-91.28-56.36-139.04-15.37-29.37-22.81-52.02-26.63-85.27-.33-2.83-.1-6.74-.56-9.46-.12-.73-.56-1.6-1.38-1.39-2.03.5-15.79,25.67-17.47,29.3-15.92,34.45-14.21,61.8-19.64,97.82-.37,2.46-.04,4.44-2.84,4.13-5.5-.61-15.38-4-21.16-5.61-17.72-4.95-36.44-10.36-51.84-20.54-2.92-1.93-8.58-7.19-11.25-8.24-.71-.28-1.03.11-.82.82,13.64,18.86,30.24,33.69,50.3,45.47,10.78,6.34,22.47,11.28,33.16,17.54-2.97,23.18-10.99,45.39-21.92,65.88-3.1,5.81-7.01,11.24-9.75,17.24,1.44,1.28,20.1-8.68,22.78-10.34,21.1-13.09,35.45-33.86,41.75-57.79.77-1.1,4.22.4,5.36.77,23.28,7.63,65.63,25.27,79.47,45.81,3.83,5.68,5.92,12.22,7.68,18.77,1.7-.85,1.2-4.19,1.13-5.87ZM641.73,526.58l.84-46.76,11.04,22.08c11.13,21.1,26.11,39.66,40.19,58.63.08.08.13.15.19.22-.07-.08-.14-.15-.19-.22l-.56.56c-2.23-1.96-5.09-4.14-7.53-6.11-13.65-11.01-28.58-20.06-43.98-28.4Z"/>
    <path d="M973.64,513.77c-.87.19-2.1,7.02-2.65,8.5-3.99,10.78-13.62,16.72-24.93,12.36-10.2-3.93-13.26-14.27-14.48-24.2,3.39.02,6.37,1.68,9.81,2.16,27.52,3.83,44.62-12,42.55-39.75-2.48-33.37-46.29-51.55-67.63-23.59-20.86,27.31-17.14,85.17,20.83,96.54,14.88,4.46,45.87.07,44.02-20.63-.25-2.78-4.3-12.09-7.52-11.39ZM931.3,503.19c-1.24-2.48-1.07-16.29-.86-19.79.51-8.53,5.25-30.35,15.48-31.86,8.2-1.21,11.06,13.8,11.76,19.71,1.51,12.81-1.37,32.36-17.48,33.6-1.88.14-8.05.06-8.9-1.66Z"/>
    <path d="M805.09,694.48c-4.73-33.85-31.98-58.26-39.74-91.09-1.66-7.02-2.26-13.78-3.03-20.91-.29-2.71-1.22-1.9-2.5-.21-14.85,19.61-15.95,43.81-18.7,67.32-15.18-4.51-32.01-6.97-44.27-17.81l-.82.82c7.77,10.96,18.09,18.87,29.69,25.43,2.49,1.41,12.97,5.7,13.5,7.67.37,1.37-2.01,10.46-2.59,12.51-3.09,10.92-8.25,20.62-13.88,30.38,17-4.33,29.6-19.11,34.32-35.66,14.24,4.59,38.94,13.29,45.97,27.5l2.68,6.49c.51-3.85-.08-8.5-.63-12.44ZM759.77,656.84l.3-23.94c2.11,2.55,3.29,6.24,4.91,9.28,5.5,10.31,12.36,20.51,19.59,29.69,0,0,0,0,0,0,0,0,0,0,0,0l-.56.56c-7.52-5.99-15.71-11.14-24.24-15.58Z"/>
    <path d="M815.11,401.69c-.41-.7-3.07-3.67-3.81-3.14-.4,16.23-19.15,15.68-20.05.56,9.61,1.58,19.54.13,22.86-10.27,4.71-14.78-6.74-29.56-22.44-27.44-22.67,3.06-22.08,53.18,5.99,55.51,7.7.64,23.14-5.52,17.46-15.22ZM789.09,390.4c-.48-4.44-.36-21.12,6.33-21.11,4.48,0,7.04,11.38,6.92,14.97-.2,5.97-3.83,12.81-10.82,11.5-1.89-.35-2.26-3.7-2.43-5.36Z"/>
  </g>
  <g>
    <path d="M276.98,759.94v.56h-12.81v-.56c3.8-1.6,9-1.59,12.81,0Z"/>
    <path d="M276.98,759.94c-4.19.13-8.62.12-12.81,0-45.61-1.32-91.3-17.66-126.91-45.98-4-3.18-14.84-10.94-13.44-16.54.74-2.96,14.33-.05,17.01.18,20.12,1.68,41.22,3.29,61.08-.73,31.17-6.31,59.92-23.14,83.43-44.07,1.69-1.5,7.83-8.51,9.2-8.65,1.74-.18,6.15,3.78,7.76,5.04,20.15,15.77,47.25,44.22,55.43,68.72,7.46,22.34-11.23,29.22-28.85,34.08-16.74,4.62-34.52,7.42-51.91,7.95Z"/>
    <path d="M427.01,396.22c24.23,25.35,46.7,63.54,53.4,98.31.8,4.13,2.55,15.72-5.17,10.73-5.16-3.34-11.91-10.96-17.02-15.27-16.68-14.05-31.32-25.45-52.18-33.01-31.05-11.25-63.88-12.63-96.41-7.71-1-.34-3.08-8.69-3.54-10.39-6.89-25.16-12.01-63.4-3.52-88.37,6.44-18.94,23.83-14.84,38.73-9.73,32.8,11.25,61.86,30.5,85.7,55.44Z"/>
    <path d="M259.16,329.09c7.98-.35,16.06.11,23.94.56,2.4.13,5.04-.27,7.46.06,5.62.77,12.21,3.78,4.98,8.76-14.49,9.96-30.29,16.87-44.68,28.26-29.4,23.28-47.33,59.8-55.57,95.86-.73,3.18-1.71,12.59-2.68,14.58-.81,1.65-5.47,1.2-7.26,1.14-25.9-.96-58.18-6.7-81.01-19.22-19.24-10.54-22.17-21.46-9.35-39.99,36.14-52.22,100.56-87.22,164.17-90Z"/>
    <g>
      <path d="M133.31,582.93c1.69,1.08,3.39,2.11,5.12,3.09-1.73-1-3.42-2.07-5.12-3.09Z"/>
      <path d="M144.23,589.06l.09-.14c-1.26-.48-2.47-1.06-3.66-1.68,1.18.63,2.37,1.24,3.57,1.82Z"/>
      <path d="M139.09,586.39c.08.05.17.09.25.14-.08-.05-.17-.09-.25-.14Z"/>
    </g>
    <path d="M150.02,605.19c2.06-.98,5.39-.62,7.8-.56"/>
    <g>
      <path d="M180.09,597.96c-2.04-1.15-3.96-2.39-6.13-3.34-.15-.07-.4.07-.56,0l-1.67-1.11c-42.04-20.95-81.31-61.16-95.23-106.59-.62-2.03-2.8-12.69-3.35-13.08-.41-.29-1.53.2-2.05.42-.87.37-10.87,6.78-11.44,7.33-.46.44-.78.83-.83,1.49,23.03,48.15,61.02,91.02,111.24,111.53.16-.03.39,0,.56,0l1.11.56c.18.05.4-.06.56,0l.56.56c.16.07.41-.07.56,0,.63.7,1.18,1.25,1.67,1.67-1.53-1.28-4.07-2.31-6.13-2.23-37.44-14.28-78.86-49.32-98.66-84.24-.87-1.54-4.96-10.71-5.81-10.91-1.26-.3-10.79,8.84-12.42,10.34,20.71,29.95,50.14,53.95,81.24,72.56,10.77,5.44,21.53,11.19,33.41,13.92.38.45.01.63-1.11.56-8.09-1.95-14.26-4.51-21.72-7.79-.47-.21-1.08-.29-1.67-.56l-4.45-2.23c-.16-.06-.39.06-.56,0l-2.78-1.67c-.15-.07-.4.07-.56,0l-1.67-1.11c-20.32-9.49-44.53-28.15-59.6-44.8-1.57-1.74-10.08-12.91-10.92-13.05-.65-.11-.94.41-1.34.76-1.25,2.71-9.62,9.75-9.93,11.85-.08.54-.03.76.19,1.24.48,1.06,7.96,7.1,9.5,8.35,26.69,21.7,56.03,36.98,88.8,47.33l1.67.56c.17.05.38-.04.56,0l1.67.56h.56l13.36,2.78c-5.26.21-10.56-.73-15.59-2.22-.18.01-.38.01-.56,0l-1.67-.56c-.17-.04-.37.03-.56,0l-2.23-.56c-24.93-4.7-58.76-20.46-78.22-36.75-1.48-1.24-5.32-5.92-6.79-6.05l-1.22.85c-.71,2.61-8.88,12.06-8.38,13.76.12.41.49.66.85.86,32.32,14.06,65.74,27.31,101.01,31.79,5.64.63,11.33.32,16.99.56.68.03,2.07-.42,1.94.55-6.58.6-13.15.65-19.77.57-.94-.01-2.48.36-3.05-.57-21.14-.57-49.5-6.98-69.34-14.46-2.62-.99-13.95-6.63-15.08-6.7-.34-.02-.64-.04-.97.06-1,.32-7.03,13.08-7.59,15.19.39,1.24,12.13,2.7,14.27,3.03,25.98,3.99,53,6.29,79.26,6.22l7.8-.56c.56.01,1.11,0,1.67,0l12.25-1.66c.14.85-1.04.66-1.67.82-1.99.51-5.31,1.44-7.24,1.4h-.56l-2.23.56c-21.6,4.72-49.37,2.36-71.53,1.65-5.77-.18-11.52-.3-17.29-.53-.94.03-1.12.59-1.52,1.26-.78,1.32-4.66,13.06-4.85,14.64-.05.45-.06.9-.04,1.35,24.81-2.34,49.74-5.21,74.18-10.18,6.88-1.4,13.62-3.49,20.49-4.85l1.11-.56c.18-.03.37.02.56,0l9.46-3.07c-2.61,2.02-5.88,2.96-8.9,4.18-.16.06-.4-.06-.56,0l-1.11.56c-25.39,9.86-52.06,16.07-78.68,21.83-1.1.5-1.59,1.42-1.93,2.53-1.26,4.18-1.12,9.67-2.83,13.9-.17.5.41,1.14.79,1.24.82.21,13.9-4.9,15.96-5.68,25.1-9.57,48.3-20.76,72.25-32.7l3.34-2.23c.16-.06.38.06.56,0,1.07-1.32,2.93-2.2,4.4-3.12.47-.3,1.21-1.39,1.73-.5-1.93,2.02-4.19,3.67-6.41,5.34-.45.39-.93.77-1.39,1.06-22.62,17.64-47.97,31.61-73.81,43.95-1.97,2.14-.74,13.59-1.94,17-.18,1.16.46.97,1.31.74,3.53-.95,17.01-10.38,20.94-13.03,22.88-15.41,40.61-31.18,60.19-50.33.79-2.41,3.2-3.97,5.01-5.57-.81,2.12-2.17,4.64-3.89,6.12-10.09,18.12-33.43,40.32-49.3,53.98-2.5,2.15-16.28,12.35-16.74,13.92l.89,16.71c.43.02.87.05,1.3-.09,1.61-.55,10.93-9.19,12.92-11.03,20.41-18.94,41.14-44.93,52.71-70.33,1.21-2.66,5-10.74,5.37-13.04.46-2.86-1.26-2.11-2.69-2.92Z"/>
      <path d="M171.11,608.69c-.05.11-.13.25-.24.4l.31-.28s-.04-.08-.07-.12Z"/>
      <path d="M169.97,608.81c.29-.17.52-.28.7-.35-.22.03-.47.19-.7.35Z"/>
      <path d="M162.82,609.08v-.13c-.1.11-.24.23-.45.36l.45-.23Z"/>
    </g>
    <path d="M387.8,547.3l-2.23.56c.51-.09,1.25-.4,2.23-.56Z"/>
    <path d="M148.35,596.84l-2.23-.56c.88.17,1.72.46,2.23.56Z"/>
    <path d="M162.27,605.19l-2.23.56"/>
    <path d="M150.57,597.4c-.61-.04-1.4.17-1.67-.56.51.13,1.39-.25,1.67.56Z"/>
    <path d="M150.57,596.29c-.62-.18-1.11-.38-1.67-.56l1.67.56Z"/>
    <path d="M152.8,596.84c-.81.41-1.59-.54-1.67-.56l1.67.56Z"/>
    <path d="M137.21,586.82c-.97-.36-2.09-.88-2.78-1.67.93.43,2.32.28,2.78,1.67Z"/>
    <path d="M142.22,589.05c-1.44-.65-3.32-.87-4.45-2.23,1.54.61,3.27.91,4.45,2.23Z"/>
    <path d="M133.87,585.15l-1.67-1.11c.97.45,1.57,1.07,1.67,1.11Z"/>
    <path d="M173.41,594.62c-.64-.27-1.26-.51-1.67-1.11"/>
    <path d="M160.6,608.53c-.06,0-.25.39-1.11.56l1.11-.56Z"/>
    <path d="M161.16,609.65l-1.11.56c.26-.1.64-.37,1.11-.56Z"/>
    <path d="M439.85,483.3c-29.4-25.85-80.94-32.75-118.52-28.33-2.7.32-16.54,3.12-17.62,2.45-2.33-1.43-9.57-34.31-10.41-39.15-2.01-11.51-2.33-22.81-3.51-34.34-1.1-10.76-6.26-24.91-19.63-22.42-3.75.7-11.43,6.74-14.59,9.35-33.49,27.53-51.82,70.63-56.65,113.15-.39,1.21-1.22,1.38-2.36,1.53-13.55,1.8-38.9-1.98-52.75-4.65-12.11-2.34-28.23-9.13-39.99-4-12.03,5.24-6.03,19.7-2.5,28.66,13.19,33.49,42.01,61.51,72.84,79.15,5.97,3.41,12.32,6.07,18.13,9.73-4.78,16.4-11.72,32.87-19.89,47.88-5.08,9.34-16.17,23.26-17.3,33.36-2.14,19.16,14.65,18.15,28.61,16.91,40.94-3.61,77.83-26.21,106.1-54.81,1.18-1.2,2.6-4.27,4.63-4.08.96.09,12.26,9.06,13.99,10.48,15.63,12.73,26.21,25.48,39.54,40.07,7.29,7.98,22.9,19.33,30.81,5.73,9.47-16.29,10.64-49.95,8.45-68.35-3.05-25.65-12.25-49.74-24.41-72.29.28-1.46,12-9.02,14.1-10.39,17.83-11.6,33.59-17.35,52.28-26.23,12.21-5.8,24.43-17.28,10.64-29.41ZM255.92,603.9c-8.3,18.78-24.95,35.52-44.08,43.04,10.62-22.06,19.03-45.43,20.6-70.14l28.42,8.61c.38.29.5.69.57,1.15.34,2.29-4.25,14.51-5.5,17.34ZM344.59,619.16c-14.92-23.27-63.45-32.79-88.64-40.54-33.05-10.17-71.05-24.14-95.65-49.11-.7-.71-5.11-5.51-5.27-5.87-.13-.3-.11-.94.27-.82,13.26,9.5,28.93,13.73,44.71,17.09,9.37,1.99,21.85,4.73,31.2,5.6.62.06,1.22.33,1.81-.1.39-.28,1.04-8.12,1.1-9.49.87-19.35-.76-39.01,2.47-58.21,2.5-14.84,10.56-38.67,19.1-51.03.34-.49-.09-1.03,1.24-.73,3.56,21.18,9.19,42.65,19.4,61.61,14.15,26.29,34.1,49.59,49.89,74.82,13.22,21.13,22.2,42.69,24.26,67.86l-5.89-11.08Z"/>
    <path d="M386.13,546.19c7.25-1.96,14.28-4.38,21.7-5.87,22.98-4.61,47.5-5.75,70.9-4.83l2.32-1.57c.6-2.23,8.44-11.76,8.1-13.04-.17-.61-1.27-.99-1.92-.88-32.48,2.42-65.54,6.9-95.35,20.52-2.62,1.2-17.57,8.63-17.91,10.48,25.72,51.32,36.03,115.27,9.93,168.57.37.57.74.74,1.39.85,3.57.61,9.69,1,13.39,1.14.68.03,1.31.08,1.93-.29,1.17-.7,2.91-12.82,3.25-15.12,5.62-38.14,3.97-79.53-9.39-115.98-3.12-8.5-7.46-17.6-11.69-25.61-.08-.16-.85-.57-1.22-1.26-1.14-2.11-2.23-4.36-3.23-6.54,2.35,1.89,3.51,4.76,5.01,7.24,5.01,8.29,8.31,16,11.69,25.05,13.56,36.24,19.48,76.94,11.69,115.23l14.74-.57c1.53-.29,1.8-1.06,1.99-2.46,1.47-11.06-1.17-30.84-2.89-42.25-3.35-22.3-10.18-48.83-19.41-69.38-2.8-6.25-7.4-14.88-11.14-20.6-.69-1.05-7.78-9.43-7.23-10.02,3.12,2.59,5.5,6.13,7.79,9.46,4.44,6.47,8.27,13.54,11.69,20.6,14.24,29.4,22.66,62.92,22.53,95.77.43.65.9.47,1.53.42,2.73-.23,11.3-1.98,13.93-2.83,1.85-.6,2.17-.75,1.98-2.74-.58-6.29-3.9-17.41-5.72-23.84-7.08-25.06-18.03-49.04-31.47-71.24-4.38-5.8-8.17-12.21-12.81-17.81-1.87-2.25-5.01-4.61-6.68-7.23,2.87,1.18,5.15,4.42,7.24,6.67,4.94,5.32,9.6,11.01,13.36,17.26,18.06,23.03,30.67,51.16,35.71,80.09.93.29,1.84,0,2.74-.19,1.41-.31,12.89-4.22,13.57-4.69.66-.46.36-1.26.21-1.87-.94-3.73-7.03-13.52-9.25-17.49-13.28-23.81-28.13-45.65-45.76-66.42-3.72-3.15-6.9-6.82-10.58-10.02-2.15-1.87-4.77-3.38-6.68-5.56,2.78.62,5.08,3.29,7.24,5,3.69,2.93,7.63,5.76,10.58,9.46,10.01,8.84,19.84,20.12,28.06,30.67,9.11,11.69,17.2,24.2,23.72,37.54.95.62,1.74.13,2.64-.18,2.07-.7,10.53-4.82,12.36-6.01.54-.35,1.2-.76,1.08-1.52-.19-1.23-14.49-16.27-16.62-18.49-15.7-16.43-35.09-35.45-53.47-48.69-3.76-2.71-8.24-4.61-11.69-7.79,4.78,1.42,8.7,4.6,12.81,7.23,22.78,14.58,42.66,33.24,63.51,50.36.42.23.88.35,1.37.35,1.11,0,14-8.46,14.18-9.29.11-.49-.17-.8-.5-1.08-27.69-18.26-56.03-36.19-86.9-48.68l-8.91-3.33c3.74.11,7.09,1.75,10.58,2.78,26.81,7.93,52.21,20.14,76.87,33.09,1.15.53,2.58.58,3.62-.22,1.37-1.82,11.73-9.42,11.38-10.87-10.63-4.23-21.92-7.73-32.98-11.01-23.92-7.1-45.02-11.57-69.62-15.58-.5-.08-1.67-.24-1.52-.97,31.95-.67,63.58,4.52,94.39,12.29,3-.18,8.53-9.55,11.43-11.43.55-.6.8-1.28.28-2-.71-.98-21.18-3.06-23.97-3.31-25.55-2.3-52.86-2.43-78.24,1.67l-2.23.56c-.34.06-.77-.07-1.11,0-.35.07-4.97,2.12-5.02.83,1.59-.77,3.31-1.46,5.02-1.95"/>
    <path d="M166.72,596.84l8.35,2.22c-3.27.11-6.35-.92-9.46-1.66l1.11-.56Z"/>
    <path d="M172.85,595.73l-.56-.56c.39.15.52.54.56.56Z"/>
    <path d="M317.63,582.93c2.02,2.14.77,2.2-1.11.56-13.24-9.79-26.63-17.48-41.56-24.41-2.25-1.05-8.84-3.04-9.93-4.54l-3.07-43.41,12.45,20.11c12.53,18.79,28,35.15,43.23,51.7Z"/>
    <path d="M317.63,582.93c.71.77,2.43,1.25,2.22,2.78-.7.68-2.85-1.86-3.34-2.22,1.32.91,2.24.92,1.11-.56Z"/>
  </g>
</svg>