<?xml version="1.0" encoding="UTF-8"?>
<svg id="Capa_1" xmlns="http://www.w3.org/2000/svg" version="1.1" viewBox="0 0 1080 1080">
  <!-- Generator: Adobe Illustrator 29.7.1, SVG Export Plug-In . SVG Version: 2.1.1 Build 8)  -->
  <defs>
    <style>
      .st0 {
        fill: #eb3e8f;
      }
    </style>
  </defs>
  <path class="st0" d="M978.47,345.66c.27,2.07.59,4.31.96,6.71-.16,5.41.22,10.9,0,16.3-2.16,52.3-16.32,105.98-19.23,157.73-1.01,18-.05,33.52,6.29,50.37,2.54,6.75,6.75,9.47-4.02,4.98-36.79-15.35-41.34-38.17-41.6-75.42-.49-68.47,11.57-136.64,7.71-205.27-.74-13.1-3.45-26.22-6.7-38.85,1.57-1.7,22.81,15.66,24.95,17.73,16.8,16.28,30.55,42.07,31.65,65.71Z"/>
  <path class="st0" d="M654.19,911.52c-23.87-1.94-55.58-12.62-57.6-40.72-1.84-25.69,22.62-22.06,40.32-17.77.24,2.98-3.46,3.19-5.27,4.79-14.06,12.42-17.19,41.88,6.68,43.19,29.24,1.61,46.39-30.04,38.62-55.87s-35.51-37.42-57.29-19.93l27.81-96.86c-16.3,3.09-36.75,19.58-39.86,36.39-.96,5.18-.06,9.42.05,14.43-6.25-7.84-10.83-18.16-13.43-27.81s-8.29-36.12,4.99-39.12c36.65-.35,73.77,3.86,104.37-20.35l-56.11,105.51c16.91-4.52,41.29-6.51,53.7,8.17,28.32,33.51,12.98,100.59-34.52,105.96-3.28.37-9.11.27-12.47,0Z"/>
  <path class="st0" d="M979.43,352.38c-1.73-1.33-.86-4.59-.96-6.71h.96v6.71Z"/>
  <path class="st0" d="M724.21,394.58c-13.64-16.06-39.37-32.32-58.73-15.35-23.32,20.44-24,69.91-18.53,97.86,8.19,41.86,30.43,22.38,41.54-4.57,10.29-24.97,13.31-54.56,6.95-80.81,12.82,6.07,24.17,21.59,30.58,34.16,18.64,36.55,26.59,133.9,11.8,171.73-11.27,28.83-44.56,54.12-74.81,59.49-33.66,5.98-85.33-9.29-69.54-53.21,8.22-22.87,35.01-28.68,56.86-25.15l-9.42,11.19c-13.19,25.14-1.49,56.04,30.77,48.98,18.94-4.14,26.08-24.81,29.2-41.78,5.39-29.3-2.02-55.81-6.42-84.57-1.39.11-1.5,1.42-1.94,2.37-7.26,15.59-11.83,31.97-33.03,33.15-41.21,2.3-62.16-59.07-65.74-91.64-4.53-41.17,2.26-79.65,42.18-99.75,31.96-16.1,74.2,7.51,88.28,37.9Z"/>
  <path class="st0" d="M594.7,557.61c-18.02,1.45-39.7-9.91-49.72-24.61-19.9-29.2-1.87-86.38-12.69-121.58-4.11-13.35-11.18-21.82-20.84-6.57-18.62,29.39-20.16,92.31-15.3,126.13,3,20.85,12.29,38.79,18.92,58.28-23.06-7.11-43.77-18.99-56.14-40.26-19.48-33.5-19.64-63.13-25.7-99.94-4.51-27.4-10.42-54.99-21.77-80.37,16.94.21,40.31,7.56,51.34,21.08,11.44,14.03,9.05,32.56,14.38,48.93,5.31-20.14,6.13-43.02,19.69-59.93s32.69-27.13,54.02-13.76c34.11,21.38,23.35,101.71,27.65,136.36,2.42,19.5,9.05,38.12,16.17,56.24Z"/>
  <path class="st0" d="M767.4,763.82l-10.16,18.14c-8.15,13.11-26.33,24.2-41.01,14.31-21.04-14.18-3.73-55.8-2.57-76.1.63-11.03-1.91-19.12-3.16-29.46-.1-.8-1.02-2.39.79-2.66,2.98-.45,17.98,8.4,20.65,10.99,18.89,18.4-3.03,49.94-.89,71.86,1.73,17.71,13.23,5.71,18.52-2.38,12.68-19.39,20.6-77.62,14.47-99.65-1.26-4.53-4.55-8.91-3.83-13.43,16.23,8.86,27.84,14.67,32.45,33.74,9.12,37.74-3.26,76.64,6.41,113.95-8.92.77-31.66-11.08-31.66-20.61v-18.7Z"/>
  <path class="st0" d="M854.7,793.55c-26.88-7.04-34.54-15.75-38.25-42.8-7.13-51.93,1.78-106.66-16.43-156.68,20.26,7.31,38.38,24.11,44.62,45.06,5.61,18.83,2.99,47.47,2.43,67.66-.62,22.36-5.72,49.6.65,71.2,1.72,5.82,5.34,9.98,6.98,15.55Z"/>
  <path class="st0" d="M652.26,325.52c-9.22-.94-19.32-6.95-23.55-15.29-4.52-8.91-5.52-32.85-6.18-43.7-1.97-32.82.86-66.68-9.6-98.29,15.52,5.54,28.4,20.43,32.15,36.43,7.77,33.25-7.29,83.45,3.33,112.71,1.12,3.08,2.96,5.18,3.85,8.13Z"/>
  <path class="st0" d="M462.34,679.86c-3.95-98.47-54.06-157.28-97.1-239.56-26.48-50.61-39.29-89.62-45.88-146.91-.56-4.88-.17-11.61-.97-16.3-.21-1.25-.96-2.75-2.39-2.4-3.5.86-27.2,44.22-30.1,50.49-27.44,59.36-24.49,106.47-33.84,168.54-.64,4.23-.07,7.65-4.89,7.12-9.47-1.04-26.49-6.89-36.45-9.66-30.53-8.52-62.79-17.84-89.32-35.39-5.04-3.33-14.78-12.39-19.38-14.2-1.22-.48-1.78.18-1.42,1.42,23.5,32.5,52.1,58.04,86.65,78.34,18.58,10.92,38.71,19.43,57.14,30.21-5.12,39.93-18.93,78.2-37.76,113.5-5.34,10.01-12.08,19.36-16.81,29.71,2.49,2.21,34.64-14.96,39.25-17.82,36.35-22.55,61.08-58.34,71.93-99.57,1.33-1.89,7.27.69,9.23,1.33,40.11,13.15,113.07,43.54,136.92,78.92,6.59,9.78,10.2,21.05,13.23,32.34,2.92-1.47,2.06-7.21,1.95-10.11ZM311.19,525.02l1.45-80.56,19.01,38.04c19.18,36.35,44.99,68.33,69.24,101.02.13.14.23.26.33.38-.12-.13-.23-.26-.33-.38l-.96.96c-3.85-3.38-8.77-7.14-12.98-10.53-23.51-18.97-49.24-34.57-75.78-48.93Z"/>
  <path class="st0" d="M883.04,502.95c-1.49.33-3.62,12.09-4.56,14.65-6.87,18.58-23.47,28.81-42.94,21.3-17.57-6.77-22.85-24.58-24.95-41.7,5.85.03,10.97,2.89,16.9,3.72,47.41,6.59,76.87-20.67,73.32-68.49-4.27-57.5-79.75-88.81-116.53-40.65-35.94,47.06-29.53,146.74,35.89,166.33,25.64,7.68,79.02.11,75.84-35.54-.43-4.78-7.41-20.84-12.96-19.62ZM810.09,484.73c-2.14-4.28-1.85-28.06-1.48-34.1.89-14.69,9.04-52.28,26.68-54.89,14.13-2.09,19.06,23.77,20.26,33.95,2.6,22.07-2.36,55.75-30.11,57.88-3.24.25-13.86.1-15.34-2.85Z"/>
  <path class="st0" d="M592.65,814.31c-8.15-58.32-55.1-100.37-68.47-156.93-2.86-12.1-3.9-23.74-5.22-36.02-.5-4.68-2.09-3.28-4.3-.37-25.59,33.79-27.49,75.48-32.22,115.99-26.15-7.77-55.15-12.01-76.27-30.69l-1.42,1.42c13.38,18.89,31.16,32.5,51.16,43.82,4.29,2.43,22.35,9.82,23.26,13.21.64,2.35-3.47,18.02-4.47,21.55-5.32,18.81-14.22,35.53-23.91,52.34,29.29-7.46,51-32.93,59.13-61.45,24.53,7.9,67.1,22.89,79.2,47.38l4.62,11.19c.87-6.63-.13-14.64-1.08-21.44ZM514.56,749.44l.52-41.25c3.63,4.4,5.67,10.75,8.46,15.99,9.47,17.77,21.3,35.34,33.74,51.15,0,0,0,0,0,0,0,0,0,0,0,0l-.96.96c-12.95-10.33-27.06-19.2-41.76-26.84Z"/>
  <path class="st0" d="M609.91,309.84c-.71-1.21-5.29-6.32-6.56-5.41-.7,27.96-33,27.02-34.54.96,16.55,2.73,33.67.22,39.38-17.7,8.11-25.47-11.62-50.92-38.66-47.27-39.06,5.27-38.05,91.63,10.31,95.64,13.27,1.1,39.86-9.51,30.07-26.22ZM565.08,290.4c-.83-7.66-.62-36.38,10.91-36.38,7.71,0,12.13,19.61,11.92,25.79-.35,10.29-6.61,22.07-18.64,19.82-3.25-.61-3.89-6.37-4.2-9.23Z"/>
</svg>